<svg width="41" height="41" viewBox="0 0 41 41" fill="none" xmlns="http://www.w3.org/2000/svg">
<path d="M20.418 40.8203C31.3164 40.8203 40.3398 31.7773 40.3398 20.8984C40.3398 10 31.2969 0.976562 20.3984 0.976562C9.51953 0.976562 0.496094 10 0.496094 20.8984C0.496094 31.7773 9.53906 40.8203 20.418 40.8203ZM15.5742 11.9922C17.7422 11.9922 19.4023 13.2227 20.418 15.0586C21.4141 13.2227 23.1133 11.9922 25.2617 11.9922C28.6602 11.9922 31.1406 14.5703 31.1406 18.1445C31.1406 23.418 25.5156 28.2422 21.4141 30.918C21.1016 31.1523 20.7109 31.4062 20.457 31.4062C20.2031 31.4062 19.7539 31.1328 19.4023 30.918C15.2812 28.3008 9.69531 23.418 9.69531 18.1445C9.69531 14.5703 12.1562 11.9922 15.5742 11.9922Z" fill="#FF84A1"/>
</svg>
